<mxfile host="app.diagrams.net" modified="2021-04-09T08:49:59.526Z" agent="5.0 (Windows NT 10.0; Win64; x64) AppleWebKit/537.36 (KHTML, like Gecko) Chrome/89.0.4389.114 Safari/537.36" etag="fA3ac9A5-whiUn9gi3uH" version="14.5.8" type="github">
  <diagram id="Z8f3CBe4EY3VkV6AFtyd" name="第 1 页">
    <mxGraphModel dx="1065" dy="410" grid="1" gridSize="10" guides="1" tooltips="1" connect="1" arrows="1" fold="1" page="1" pageScale="1" pageWidth="827" pageHeight="1169" math="0" shadow="0">
      <root>
        <mxCell id="0" />
        <mxCell id="1" parent="0" />
        <mxCell id="BF4byPcyoN0RAYr1RFlk-1" style="edgeStyle=orthogonalEdgeStyle;rounded=0;orthogonalLoop=1;jettySize=auto;html=1;entryX=0.5;entryY=0;entryDx=0;entryDy=0;" edge="1" parent="1" source="BF4byPcyoN0RAYr1RFlk-2" target="BF4byPcyoN0RAYr1RFlk-4">
          <mxGeometry relative="1" as="geometry">
            <mxPoint x="150" y="140" as="targetPoint" />
          </mxGeometry>
        </mxCell>
        <mxCell id="BF4byPcyoN0RAYr1RFlk-2" value="开始" style="rounded=1;whiteSpace=wrap;html=1;" vertex="1" parent="1">
          <mxGeometry x="90" y="20" width="120" height="60" as="geometry" />
        </mxCell>
        <mxCell id="BF4byPcyoN0RAYr1RFlk-3" value="" style="edgeStyle=orthogonalEdgeStyle;rounded=0;orthogonalLoop=1;jettySize=auto;html=1;" edge="1" parent="1" source="BF4byPcyoN0RAYr1RFlk-4" target="BF4byPcyoN0RAYr1RFlk-6">
          <mxGeometry relative="1" as="geometry" />
        </mxCell>
        <mxCell id="BF4byPcyoN0RAYr1RFlk-4" value="点击创建&lt;br&gt;小组计划按钮" style="rounded=0;whiteSpace=wrap;html=1;" vertex="1" parent="1">
          <mxGeometry x="90" y="120" width="120" height="60" as="geometry" />
        </mxCell>
        <mxCell id="BF4byPcyoN0RAYr1RFlk-5" value="" style="edgeStyle=orthogonalEdgeStyle;rounded=0;orthogonalLoop=1;jettySize=auto;html=1;" edge="1" parent="1" source="BF4byPcyoN0RAYr1RFlk-6" target="BF4byPcyoN0RAYr1RFlk-8">
          <mxGeometry relative="1" as="geometry" />
        </mxCell>
        <mxCell id="BF4byPcyoN0RAYr1RFlk-6" value="弹出小组计划信息&lt;br&gt;表单" style="whiteSpace=wrap;html=1;rounded=0;" vertex="1" parent="1">
          <mxGeometry x="90" y="240" width="120" height="60" as="geometry" />
        </mxCell>
        <mxCell id="BF4byPcyoN0RAYr1RFlk-21" style="edgeStyle=orthogonalEdgeStyle;rounded=0;orthogonalLoop=1;jettySize=auto;html=1;entryX=0;entryY=0.5;entryDx=0;entryDy=0;" edge="1" parent="1" source="BF4byPcyoN0RAYr1RFlk-8" target="BF4byPcyoN0RAYr1RFlk-17">
          <mxGeometry relative="1" as="geometry" />
        </mxCell>
        <mxCell id="BF4byPcyoN0RAYr1RFlk-8" value="填写小组计划&lt;br&gt;计划类型&lt;br&gt;打卡天数" style="whiteSpace=wrap;html=1;rounded=0;" vertex="1" parent="1">
          <mxGeometry x="90" y="350" width="120" height="60" as="geometry" />
        </mxCell>
        <mxCell id="BF4byPcyoN0RAYr1RFlk-13" style="edgeStyle=orthogonalEdgeStyle;rounded=0;orthogonalLoop=1;jettySize=auto;html=1;entryX=1;entryY=0.25;entryDx=0;entryDy=0;" edge="1" parent="1" source="BF4byPcyoN0RAYr1RFlk-17" target="BF4byPcyoN0RAYr1RFlk-6">
          <mxGeometry relative="1" as="geometry">
            <Array as="points">
              <mxPoint x="670" y="255" />
            </Array>
          </mxGeometry>
        </mxCell>
        <mxCell id="BF4byPcyoN0RAYr1RFlk-14" value="否" style="edgeLabel;html=1;align=center;verticalAlign=middle;resizable=0;points=[];" vertex="1" connectable="0" parent="BF4byPcyoN0RAYr1RFlk-13">
          <mxGeometry x="0.1919" y="2" relative="1" as="geometry">
            <mxPoint as="offset" />
          </mxGeometry>
        </mxCell>
        <mxCell id="BF4byPcyoN0RAYr1RFlk-15" value="" style="edgeStyle=orthogonalEdgeStyle;rounded=0;orthogonalLoop=1;jettySize=auto;html=1;" edge="1" parent="1" source="BF4byPcyoN0RAYr1RFlk-17" target="BF4byPcyoN0RAYr1RFlk-19">
          <mxGeometry relative="1" as="geometry" />
        </mxCell>
        <mxCell id="BF4byPcyoN0RAYr1RFlk-16" value="是" style="edgeLabel;html=1;align=center;verticalAlign=middle;resizable=0;points=[];" vertex="1" connectable="0" parent="BF4byPcyoN0RAYr1RFlk-15">
          <mxGeometry x="-0.2111" y="-3" relative="1" as="geometry">
            <mxPoint as="offset" />
          </mxGeometry>
        </mxCell>
        <mxCell id="BF4byPcyoN0RAYr1RFlk-17" value="是否确认" style="rhombus;whiteSpace=wrap;html=1;rounded=0;" vertex="1" parent="1">
          <mxGeometry x="290" y="340" width="100" height="80" as="geometry" />
        </mxCell>
        <mxCell id="BF4byPcyoN0RAYr1RFlk-24" style="edgeStyle=orthogonalEdgeStyle;rounded=0;orthogonalLoop=1;jettySize=auto;html=1;entryX=0.5;entryY=0;entryDx=0;entryDy=0;" edge="1" parent="1" source="BF4byPcyoN0RAYr1RFlk-19" target="BF4byPcyoN0RAYr1RFlk-25">
          <mxGeometry relative="1" as="geometry">
            <mxPoint x="340" y="560" as="targetPoint" />
          </mxGeometry>
        </mxCell>
        <mxCell id="BF4byPcyoN0RAYr1RFlk-19" value="选择分享至哪个小组" style="whiteSpace=wrap;html=1;rounded=0;" vertex="1" parent="1">
          <mxGeometry x="280" y="460" width="120" height="60" as="geometry" />
        </mxCell>
        <mxCell id="BF4byPcyoN0RAYr1RFlk-28" value="是" style="edgeStyle=orthogonalEdgeStyle;rounded=0;orthogonalLoop=1;jettySize=auto;html=1;" edge="1" parent="1" source="BF4byPcyoN0RAYr1RFlk-25" target="BF4byPcyoN0RAYr1RFlk-26">
          <mxGeometry relative="1" as="geometry" />
        </mxCell>
        <mxCell id="BF4byPcyoN0RAYr1RFlk-29" value="否" style="edgeStyle=orthogonalEdgeStyle;rounded=0;orthogonalLoop=1;jettySize=auto;html=1;entryX=1;entryY=0.5;entryDx=0;entryDy=0;" edge="1" parent="1" source="BF4byPcyoN0RAYr1RFlk-25" target="BF4byPcyoN0RAYr1RFlk-19">
          <mxGeometry relative="1" as="geometry">
            <Array as="points">
              <mxPoint x="420" y="590" />
              <mxPoint x="420" y="490" />
            </Array>
          </mxGeometry>
        </mxCell>
        <mxCell id="BF4byPcyoN0RAYr1RFlk-25" value="是否确认" style="rhombus;whiteSpace=wrap;html=1;rounded=0;" vertex="1" parent="1">
          <mxGeometry x="290" y="550" width="100" height="80" as="geometry" />
        </mxCell>
        <mxCell id="BF4byPcyoN0RAYr1RFlk-31" style="edgeStyle=orthogonalEdgeStyle;rounded=0;orthogonalLoop=1;jettySize=auto;html=1;entryX=0.5;entryY=0;entryDx=0;entryDy=0;" edge="1" parent="1" source="BF4byPcyoN0RAYr1RFlk-26" target="BF4byPcyoN0RAYr1RFlk-30">
          <mxGeometry relative="1" as="geometry" />
        </mxCell>
        <mxCell id="BF4byPcyoN0RAYr1RFlk-26" value="分享成功" style="whiteSpace=wrap;html=1;rounded=0;" vertex="1" parent="1">
          <mxGeometry x="280" y="680" width="120" height="60" as="geometry" />
        </mxCell>
        <mxCell id="BF4byPcyoN0RAYr1RFlk-30" value="结束" style="rounded=1;whiteSpace=wrap;html=1;" vertex="1" parent="1">
          <mxGeometry x="280" y="790" width="120" height="60" as="geometry" />
        </mxCell>
      </root>
    </mxGraphModel>
  </diagram>
</mxfile>
